<svg xmlns="http://www.w3.org/2000/svg" viewBox="0 0 512 512">
  <defs>
    <linearGradient id="sky" x1="0%" y1="0%" x2="0%" y2="100%">
      <stop offset="0%" style="stop-color:#0C7B93"/>
      <stop offset="100%" style="stop-color:#27496D"/>
    </linearGradient>
  </defs>
  <!-- Background circle -->
  <circle cx="256" cy="256" r="256" fill="url(#sky)"/>
  <!-- Airplane -->
  <g transform="translate(256,256) rotate(-30)">
    <path d="M-20,-120 L20,-120 L30,-40 L90,20 L90,40 L30,20 L20,100 L40,130 L40,150 L0,130 L-40,150 L-40,130 L-20,100 L-30,20 L-90,40 L-90,20 L-30,-40 Z" fill="white" opacity="0.95"/>
  </g>
  <!-- Iran flag colors - small accent bar -->
  <rect x="156" y="420" width="200" height="8" rx="4" fill="#239F40"/>
  <rect x="156" y="432" width="200" height="8" rx="4" fill="white"/>
  <rect x="156" y="444" width="200" height="8" rx="4" fill="#DA0000"/>
  <!-- Price tag -->
  <circle cx="380" cy="140" r="45" fill="#FFD700" opacity="0.9"/>
  <text x="380" y="148" text-anchor="middle" font-family="Arial,sans-serif" font-weight="bold" font-size="32" fill="#27496D">€</text>
</svg>
